<svg width="374" height="154" viewBox="0 0 374 154" fill="none" xmlns="http://www.w3.org/2000/svg">
<path d="M310.317 16.7659C310.318 17.3512 310.121 17.9238 309.75 18.4112C309.379 18.8986 308.85 19.2789 308.231 19.5039C307.612 19.729 306.931 19.7886 306.273 19.6754C305.615 19.5621 305.011 19.281 304.536 18.8677C304.061 18.4543 303.738 17.9273 303.606 17.3533C303.475 16.7794 303.541 16.1843 303.798 15.6434C304.054 15.1025 304.488 14.6401 305.045 14.3147C305.603 13.9894 306.258 13.8157 306.929 13.8157C307.826 13.8157 308.686 14.1263 309.321 14.6793C309.956 15.2324 310.314 15.9828 310.317 16.7659Z" fill="#60D290"/>
<path d="M227.786 20.9326C227.785 21.5158 227.585 22.0855 227.213 22.5696C226.84 23.0538 226.312 23.4307 225.694 23.6528C225.077 23.875 224.397 23.9323 223.742 23.8176C223.088 23.7029 222.486 23.4213 222.015 23.0084C221.543 22.5956 221.222 22.0699 221.092 21.4978C220.962 20.9257 221.03 20.3329 221.286 19.7943C221.542 19.2557 221.975 18.7954 222.531 18.4715C223.086 18.1477 223.739 17.9749 224.407 17.9749C224.852 17.9749 225.292 18.0514 225.702 18.2001C226.113 18.3489 226.486 18.5669 226.8 18.8416C227.114 19.1164 227.362 19.4425 227.532 19.8013C227.701 20.1601 227.787 20.5446 227.786 20.9326Z" fill="#60D290"/>
<path d="M184.614 58.9657C184.615 59.5511 184.418 60.1237 184.047 60.6111C183.676 61.0985 183.147 61.4788 182.528 61.7038C181.909 61.9288 181.228 61.9885 180.57 61.8752C179.912 61.762 179.308 61.4809 178.833 61.0675C178.358 60.6542 178.035 60.1271 177.903 59.5532C177.772 58.9792 177.839 58.3841 178.095 57.8432C178.351 57.3023 178.785 56.8399 179.343 56.5146C179.9 56.1892 180.555 56.0155 181.226 56.0155C181.67 56.0145 182.111 56.0901 182.522 56.2379C182.933 56.3857 183.306 56.6029 183.621 56.8769C183.936 57.151 184.185 57.4766 184.356 57.835C184.526 58.1934 184.614 58.5777 184.614 58.9657Z" fill="#60D290"/>
<path d="M14.8584 150.992C14.8584 151.575 14.6602 152.146 14.2888 152.631C13.9175 153.116 13.3898 153.494 12.7723 153.717C12.1548 153.941 11.4754 153.999 10.8198 153.885C10.1643 153.771 9.5622 153.49 9.08961 153.078C8.61701 152.665 8.29516 152.14 8.16477 151.567C8.03439 150.995 8.10131 150.402 8.35707 149.863C8.61284 149.324 9.04597 148.863 9.60168 148.539C10.1574 148.215 10.8107 148.042 11.4791 148.042C12.3746 148.044 13.2328 148.355 13.8661 148.908C14.4993 149.461 14.8561 150.21 14.8584 150.992Z" fill="#60D290"/>
<path d="M74.5265 2.95019C74.5265 3.53368 74.3284 4.10407 73.957 4.58922C73.5857 5.07438 73.058 5.45251 72.4405 5.6758C71.823 5.8991 71.1435 5.95752 70.488 5.84369C69.8325 5.72985 69.2304 5.44887 68.7578 5.03628C68.2852 4.62369 67.9634 4.09802 67.833 3.52574C67.7026 2.95346 67.7695 2.36027 68.0253 1.8212C68.281 1.28212 68.7142 0.821368 69.2699 0.497198C69.8256 0.173027 70.4789 0 71.1473 0C72.0428 0.00200725 72.901 0.313475 73.5342 0.866308C74.1675 1.41914 74.5242 2.16837 74.5265 2.95019Z" fill="#60D290"/>
<path d="M374 150.224C374.002 150.809 373.804 151.382 373.433 151.87C373.061 152.357 372.532 152.738 371.913 152.963C371.293 153.187 370.611 153.247 369.953 153.133C369.295 153.019 368.691 152.737 368.216 152.323C367.742 151.909 367.419 151.381 367.289 150.807C367.158 150.232 367.226 149.637 367.484 149.096C367.741 148.555 368.177 148.093 368.735 147.769C369.294 147.444 369.95 147.272 370.621 147.274C371.516 147.276 372.374 147.587 373.008 148.14C373.641 148.693 373.998 149.442 374 150.224Z" fill="#60D290"/>
<path d="M272.021 79.1988C270.264 79.2003 268.546 78.7467 267.084 77.8954C265.622 77.0441 264.482 75.8334 263.808 74.4164C263.134 72.9993 262.957 71.4397 263.299 69.9348C263.641 68.4298 264.486 67.0472 265.728 65.9618C266.97 64.8764 268.553 64.137 270.276 63.8371C272 63.5372 273.787 63.6904 275.41 64.2771C277.034 64.8639 278.422 65.858 279.399 67.1335C280.375 68.4091 280.896 69.9089 280.896 71.4432C280.892 73.4975 279.955 75.4667 278.292 76.9201C276.629 78.3735 274.375 79.1928 272.021 79.1988ZM272.021 64.9193C270.543 64.9193 269.099 65.3019 267.87 66.0187C266.641 66.7356 265.683 67.7545 265.118 68.9466C264.552 70.1386 264.404 71.4504 264.692 72.7159C264.981 73.9814 265.692 75.1438 266.737 76.0562C267.783 76.9686 269.114 77.5899 270.564 77.8417C272.013 78.0934 273.516 77.9642 274.881 77.4704C276.247 76.9766 277.414 76.1405 278.235 75.0676C279.056 73.9948 279.494 72.7334 279.494 71.4432C279.495 70.5854 279.303 69.7359 278.928 68.9431C278.553 68.1503 278.003 67.4297 277.309 66.8225C276.615 66.2153 275.791 65.7333 274.884 65.4042C273.977 65.075 273.004 64.9051 272.021 64.9041V64.9193Z" fill="#60D290"/>
<path d="M8.88361 38.801C7.1266 38.801 5.40905 38.3462 3.94814 37.494C2.48724 36.6418 1.34861 35.4305 0.67623 34.0133C0.00385038 32.5962 -0.172076 31.0368 0.1707 29.5323C0.513476 28.0279 1.35956 26.646 2.60195 25.5613C3.84435 24.4767 5.42726 23.738 7.15051 23.4388C8.87376 23.1395 10.66 23.2931 12.2832 23.8801C13.9065 24.4671 15.2939 25.4612 16.2701 26.7366C17.2462 28.012 17.7672 29.5115 17.7672 31.0454C17.7649 33.1017 16.8282 35.0732 15.1627 36.5272C13.4972 37.9813 11.239 38.799 8.88361 38.801ZM8.88361 24.5215C7.40566 24.5215 5.96089 24.9041 4.73201 25.621C3.50314 26.3378 2.54534 27.3567 1.97975 28.5488C1.41416 29.7409 1.26618 31.0526 1.55451 32.3181C1.84285 33.5836 2.55456 34.7461 3.59963 35.6585C4.6447 36.5708 5.97621 37.1922 7.42577 37.4439C8.87533 37.6956 10.3778 37.5664 11.7433 37.0727C13.1087 36.5789 14.2758 35.7427 15.0969 34.6698C15.918 33.597 16.3563 32.3357 16.3563 31.0454C16.354 29.3158 15.566 27.6576 14.1651 26.4345C12.7642 25.2115 10.8648 24.5235 8.88361 24.5215Z" fill="#60D290"/>
<path d="M364.359 57.9392C362.601 57.9407 360.883 57.4871 359.421 56.6358C357.959 55.7846 356.819 54.5738 356.145 53.1568C355.471 51.7398 355.294 50.1801 355.636 48.6752C355.978 47.1702 356.823 45.7876 358.065 44.7022C359.307 43.6168 360.89 42.8774 362.614 42.5775C364.337 42.2776 366.124 42.4308 367.747 43.0176C369.371 43.6043 370.759 44.5984 371.736 45.874C372.712 47.1495 373.234 48.6493 373.234 50.1836C373.231 52.2386 372.296 54.2089 370.632 55.6627C368.968 57.1165 366.712 57.9352 364.359 57.9392ZM364.359 43.6597C362.878 43.6582 361.431 44.0402 360.199 44.7573C358.967 45.4744 358.007 46.4944 357.44 47.6882C356.872 48.8819 356.723 50.1958 357.012 51.4635C357.3 52.7312 358.013 53.8957 359.06 54.8096C360.107 55.7235 361.44 56.3457 362.892 56.5975C364.345 56.8493 365.85 56.7193 367.217 56.224C368.584 55.7287 369.753 54.8904 370.574 53.8151C371.395 52.7399 371.833 51.476 371.831 50.1836C371.829 48.4539 371.041 46.7957 369.64 45.5727C368.239 44.3497 366.34 43.6617 364.359 43.6597Z" fill="#60D290"/>
<path d="M142.451 32.2696C140.694 32.2711 138.975 31.8173 137.513 30.9657C136.05 30.114 134.91 28.9029 134.237 27.4854C133.563 26.0679 133.387 24.5079 133.729 23.0027C134.072 21.4976 134.918 20.115 136.161 19.0298C137.404 17.9447 138.988 17.2059 140.712 16.9069C142.436 16.6079 144.223 16.7621 145.846 17.3501C147.47 17.938 148.857 18.9333 149.833 20.2099C150.808 21.4864 151.328 22.9869 151.326 24.5215C151.324 26.5758 150.388 28.5454 148.724 29.998C147.06 31.4506 144.804 32.2675 142.451 32.2696ZM142.451 17.9977C140.973 17.9977 139.529 18.3803 138.3 19.0971C137.071 19.814 136.113 20.8329 135.547 22.0249C134.982 23.217 134.834 24.5288 135.122 25.7943C135.411 27.0598 136.122 28.2222 137.167 29.1346C138.212 30.047 139.544 30.6683 140.993 30.92C142.443 31.1718 143.946 31.0426 145.311 30.5488C146.676 30.055 147.844 29.2188 148.665 28.146C149.486 27.0731 149.924 25.8118 149.924 24.5215C149.922 22.7919 149.134 21.1337 147.733 19.9107C146.332 18.6876 144.432 17.9997 142.451 17.9977Z" fill="#60D290"/>
</svg>
